TITLE ""
FILE "LR_black_phrase_E_B01.mp3" MP3
  TRACK 01 AUDIO
    TITLE "LR_black_phrase_E_B01_001"
    INDEX 01 00:00:00
  TRACK 02 AUDIO
    TITLE "LR_black_phrase_E_B01_002"
    INDEX 01 00:00:16
  TRACK 03 AUDIO
    TITLE "LR_black_phrase_E_B01_003"
    INDEX 01 00:01:33
  TRACK 04 AUDIO
    TITLE "LR_black_phrase_E_B01_004"
    INDEX 01 00:01:67
  TRACK 05 AUDIO
    TITLE "LR_black_phrase_E_B01_005"
    INDEX 01 00:03:52
  TRACK 06 AUDIO
    TITLE "LR_black_phrase_E_B01_006"
    INDEX 01 00:04:30
  TRACK 07 AUDIO
    TITLE "LR_black_phrase_E_B01_007"
    INDEX 01 00:06:15
  TRACK 08 AUDIO
    TITLE "LR_black_phrase_E_B01_008"
    INDEX 01 00:07:18
  TRACK 09 AUDIO
    TITLE "LR_black_phrase_E_B01_009"
    INDEX 01 00:08:53
  TRACK 10 AUDIO
    TITLE "LR_black_phrase_E_B01_010"
    INDEX 01 00:09:07
  TRACK 11 AUDIO
    TITLE "LR_black_phrase_E_B01_011"
    INDEX 01 00:11:24
  TRACK 12 AUDIO
    TITLE "LR_black_phrase_E_B01_012"
    INDEX 01 00:12:02
  TRACK 13 AUDIO
    TITLE "LR_black_phrase_E_B01_013"
    INDEX 01 00:14:18
  TRACK 14 AUDIO
    TITLE "LR_black_phrase_E_B01_014"
    INDEX 01 00:15:22
  TRACK 15 AUDIO
    TITLE "LR_black_phrase_E_B01_015"
    INDEX 01 00:16:39
  TRACK 16 AUDIO
    TITLE "LR_black_phrase_E_B01_016"
    INDEX 01 00:16:58
  TRACK 17 AUDIO
    TITLE "LR_black_phrase_E_B01_017"
    INDEX 01 00:19:04
  TRACK 18 AUDIO
    TITLE "LR_black_phrase_E_B01_018"
    INDEX 01 00:19:51
  TRACK 19 AUDIO
    TITLE "LR_black_phrase_E_B01_019"
    INDEX 01 00:21:71
  TRACK 20 AUDIO
    TITLE "LR_black_phrase_E_B01_020"
    INDEX 01 00:23:03
  TRACK 21 AUDIO
    TITLE "LR_black_phrase_E_B01_021"
    INDEX 01 00:24:07
  TRACK 22 AUDIO
    TITLE "LR_black_phrase_E_B01_022"
    INDEX 01 00:24:34
  TRACK 23 AUDIO
    TITLE "LR_black_phrase_E_B01_023"
    INDEX 01 00:26:59
  TRACK 24 AUDIO
    TITLE "LR_black_phrase_E_B01_024"
    INDEX 01 00:27:40
  TRACK 25 AUDIO
    TITLE "LR_black_phrase_E_B01_025"
    INDEX 01 00:29:63
  TRACK 26 AUDIO
    TITLE "LR_black_phrase_E_B01_026"
    INDEX 01 00:30:70
  TRACK 27 AUDIO
    TITLE "LR_black_phrase_E_B01_027"
    INDEX 01 00:32:16
  TRACK 28 AUDIO
    TITLE "LR_black_phrase_E_B01_028"
    INDEX 01 00:32:48
  TRACK 29 AUDIO
    TITLE "LR_black_phrase_E_B01_029"
    INDEX 01 00:34:58
  TRACK 30 AUDIO
    TITLE "LR_black_phrase_E_B01_030"
    INDEX 01 00:35:40
  TRACK 31 AUDIO
    TITLE "LR_black_phrase_E_B01_031"
    INDEX 01 00:37:53
  TRACK 32 AUDIO
    TITLE "LR_black_phrase_E_B01_032"
    INDEX 01 00:38:58
  TRACK 33 AUDIO
    TITLE "LR_black_phrase_E_B01_033"
    INDEX 01 00:39:75
  TRACK 34 AUDIO
    TITLE "LR_black_phrase_E_B01_034"
    INDEX 01 00:40:29
  TRACK 35 AUDIO
    TITLE "LR_black_phrase_E_B01_035"
    INDEX 01 00:43:08
  TRACK 36 AUDIO
    TITLE "LR_black_phrase_E_B01_036"
    INDEX 01 00:43:57
  TRACK 37 AUDIO
    TITLE "LR_black_phrase_E_B01_037"
    INDEX 01 00:46:36
  TRACK 38 AUDIO
    TITLE "LR_black_phrase_E_B01_038"
    INDEX 01 00:47:35
  TRACK 39 AUDIO
    TITLE "LR_black_phrase_E_B01_039"
    INDEX 01 00:48:64
  TRACK 40 AUDIO
    TITLE "LR_black_phrase_E_B01_040"
    INDEX 01 00:49:19
  TRACK 41 AUDIO
    TITLE "LR_black_phrase_E_B01_041"
    INDEX 01 00:51:08
  TRACK 42 AUDIO
    TITLE "LR_black_phrase_E_B01_042"
    INDEX 01 00:51:63
  TRACK 43 AUDIO
    TITLE "LR_black_phrase_E_B01_043"
    INDEX 01 00:53:50
  TRACK 44 AUDIO
    TITLE "LR_black_phrase_E_B01_044"
    INDEX 01 00:54:55
  TRACK 45 AUDIO
    TITLE "LR_black_phrase_E_B01_045"
    INDEX 01 00:56:13
  TRACK 46 AUDIO
    TITLE "LR_black_phrase_E_B01_046"
    INDEX 01 00:56:38
  TRACK 47 AUDIO
    TITLE "LR_black_phrase_E_B01_047"
    INDEX 01 00:59:25
  TRACK 48 AUDIO
    TITLE "LR_black_phrase_E_B01_048"
    INDEX 01 01:00:05
  TRACK 49 AUDIO
    TITLE "LR_black_phrase_E_B01_049"
    INDEX 01 01:02:64
  TRACK 50 AUDIO
    TITLE "LR_black_phrase_E_B01_050"
    INDEX 01 01:04:01
  TRACK 51 AUDIO
    TITLE "LR_black_phrase_E_B01_051"
    INDEX 01 01:05:14
  TRACK 52 AUDIO
    TITLE "LR_black_phrase_E_B01_052"
    INDEX 01 01:05:45
  TRACK 53 AUDIO
    TITLE "LR_black_phrase_E_B01_053"
    INDEX 01 01:07:58
  TRACK 54 AUDIO
    TITLE "LR_black_phrase_E_B01_054"
    INDEX 01 01:08:34
  TRACK 55 AUDIO
    TITLE "LR_black_phrase_E_B01_055"
    INDEX 01 01:10:46
  TRACK 56 AUDIO
    TITLE "LR_black_phrase_E_B01_056"
    INDEX 01 01:11:52
  TRACK 57 AUDIO
    TITLE "LR_black_phrase_E_B01_057"
    INDEX 01 01:13:07
  TRACK 58 AUDIO
    TITLE "LR_black_phrase_E_B01_058"
    INDEX 01 01:13:31
  TRACK 59 AUDIO
    TITLE "LR_black_phrase_E_B01_059"
    INDEX 01 01:15:41
  TRACK 60 AUDIO
    TITLE "LR_black_phrase_E_B01_060"
    INDEX 01 01:16:15
  TRACK 61 AUDIO
    TITLE "LR_black_phrase_E_B01_061"
    INDEX 01 01:18:26
  TRACK 62 AUDIO
    TITLE "LR_black_phrase_E_B01_062"
    INDEX 01 01:19:24
  TRACK 63 AUDIO
    TITLE "LR_black_phrase_E_B01_063"
    INDEX 01 01:20:45
  TRACK 64 AUDIO
    TITLE "LR_black_phrase_E_B01_064"
    INDEX 01 01:20:74
  TRACK 65 AUDIO
    TITLE "LR_black_phrase_E_B01_065"
    INDEX 01 01:23:04
  TRACK 66 AUDIO
    TITLE "LR_black_phrase_E_B01_066"
    INDEX 01 01:23:57
  TRACK 67 AUDIO
    TITLE "LR_black_phrase_E_B01_067"
    INDEX 01 01:25:59
  TRACK 68 AUDIO
    TITLE "LR_black_phrase_E_B01_068"
    INDEX 01 01:26:65
  TRACK 69 AUDIO
    TITLE "LR_black_phrase_E_B01_069"
    INDEX 01 01:28:11
  TRACK 70 AUDIO
    TITLE "LR_black_phrase_E_B01_070"
    INDEX 01 01:28:34
  TRACK 71 AUDIO
    TITLE "LR_black_phrase_E_B01_071"
    INDEX 01 01:30:61
  TRACK 72 AUDIO
    TITLE "LR_black_phrase_E_B01_072"
    INDEX 01 01:31:37
  TRACK 73 AUDIO
    TITLE "LR_black_phrase_E_B01_073"
    INDEX 01 01:33:65
  TRACK 74 AUDIO
    TITLE "LR_black_phrase_E_B01_074"
    INDEX 01 01:34:66
  TRACK 75 AUDIO
    TITLE "LR_black_phrase_E_B01_075"
    INDEX 01 01:36:14
  TRACK 76 AUDIO
    TITLE "LR_black_phrase_E_B01_076"
    INDEX 01 01:36:42
  TRACK 77 AUDIO
    TITLE "LR_black_phrase_E_B01_077"
    INDEX 01 01:39:03
  TRACK 78 AUDIO
    TITLE "LR_black_phrase_E_B01_078"
    INDEX 01 01:39:58
  TRACK 79 AUDIO
    TITLE "LR_black_phrase_E_B01_079"
    INDEX 01 01:42:17
  TRACK 80 AUDIO
    TITLE "LR_black_phrase_E_B01_080"
    INDEX 01 01:43:22
  TRACK 81 AUDIO
    TITLE "LR_black_phrase_E_B01_081"
    INDEX 01 01:44:37
  TRACK 82 AUDIO
    TITLE "LR_black_phrase_E_B01_082"
    INDEX 01 01:44:65
  TRACK 83 AUDIO
    TITLE "LR_black_phrase_E_B01_083"
    INDEX 01 01:47:04
  TRACK 84 AUDIO
    TITLE "LR_black_phrase_E_B01_084"
    INDEX 01 01:47:57
  TRACK 85 AUDIO
    TITLE "LR_black_phrase_E_B01_085"
    INDEX 01 01:49:70
  TRACK 86 AUDIO
    TITLE "LR_black_phrase_E_B01_086"
    INDEX 01 01:50:75
  TRACK 87 AUDIO
    TITLE "LR_black_phrase_E_B01_087"
    INDEX 01 01:52:23
  TRACK 88 AUDIO
    TITLE "LR_black_phrase_E_B01_088"
    INDEX 01 01:52:52
  TRACK 89 AUDIO
    TITLE "LR_black_phrase_E_B01_089"
    INDEX 01 01:55:72
  TRACK 90 AUDIO
    TITLE "LR_black_phrase_E_B01_090"
    INDEX 01 01:56:52
  TRACK 91 AUDIO
    TITLE "LR_black_phrase_E_B01_091"
    INDEX 01 01:59:72
  TRACK 92 AUDIO
    TITLE "LR_black_phrase_E_B01_092"
    INDEX 01 02:01:02
  TRACK 93 AUDIO
    TITLE "LR_black_phrase_E_B01_093"
    INDEX 01 02:02:25
  TRACK 94 AUDIO
    TITLE "LR_black_phrase_E_B01_094"
    INDEX 01 02:02:45
  TRACK 95 AUDIO
    TITLE "LR_black_phrase_E_B01_095"
    INDEX 01 02:04:67
  TRACK 96 AUDIO
    TITLE "LR_black_phrase_E_B01_096"
    INDEX 01 02:05:49
  TRACK 97 AUDIO
    TITLE "LR_black_phrase_E_B01_097"
    INDEX 01 02:08:06
  TRACK 98 AUDIO
    TITLE "LR_black_phrase_E_B01_098"
    INDEX 01 02:09:12
  TRACK 99 AUDIO
    TITLE "LR_black_phrase_E_B01_099"
    INDEX 01 02:10:27
  TRACK 100 AUDIO
    TITLE "LR_black_phrase_E_B01_100"
    INDEX 01 02:10:44
  TRACK 101 AUDIO
    TITLE "LR_black_phrase_E_B01_101"
    INDEX 01 02:12:39
  TRACK 102 AUDIO
    TITLE "LR_black_phrase_E_B01_102"
    INDEX 01 02:13:17
  TRACK 103 AUDIO
    TITLE "LR_black_phrase_E_B01_103"
    INDEX 01 02:15:20
  TRACK 104 AUDIO
    TITLE "LR_black_phrase_E_B01_104"
    INDEX 01 02:16:20
  TRACK 105 AUDIO
    TITLE "LR_black_phrase_E_B01_105"
    INDEX 01 02:17:17
  TRACK 106 AUDIO
    TITLE "LR_black_phrase_E_B01_106"
    INDEX 01 02:17:39
  TRACK 107 AUDIO
    TITLE "LR_black_phrase_E_B01_107"
    INDEX 01 02:20:72
  TRACK 108 AUDIO
    TITLE "LR_black_phrase_E_B01_108"
    INDEX 01 02:21:44
  TRACK 109 AUDIO
    TITLE "LR_black_phrase_E_B01_109"
    INDEX 01 02:25:03
  TRACK 110 AUDIO
    TITLE "LR_black_phrase_E_B01_110"
    INDEX 01 02:26:06
  TRACK 111 AUDIO
    TITLE "LR_black_phrase_E_B01_111"
    INDEX 01 02:27:29
  TRACK 112 AUDIO
    TITLE "LR_black_phrase_E_B01_112"
    INDEX 01 02:27:61
  TRACK 113 AUDIO
    TITLE "LR_black_phrase_E_B01_113"
    INDEX 01 02:29:67
  TRACK 114 AUDIO
    TITLE "LR_black_phrase_E_B01_114"
    INDEX 01 02:30:47
  TRACK 115 AUDIO
    TITLE "LR_black_phrase_E_B01_115"
    INDEX 01 02:32:56
  TRACK 116 AUDIO
    TITLE "LR_black_phrase_E_B01_116"
    INDEX 01 02:33:59
  TRACK 117 AUDIO
    TITLE "LR_black_phrase_E_B01_117"
    INDEX 01 02:35:03
  TRACK 118 AUDIO
    TITLE "LR_black_phrase_E_B01_118"
    INDEX 01 02:35:33
  TRACK 119 AUDIO
    TITLE "LR_black_phrase_E_B01_119"
    INDEX 01 02:37:49
  TRACK 120 AUDIO
    TITLE "LR_black_phrase_E_B01_120"
    INDEX 01 02:38:27
  TRACK 121 AUDIO
    TITLE "LR_black_phrase_E_B01_121"
    INDEX 01 02:40:44
  TRACK 122 AUDIO
    TITLE "LR_black_phrase_E_B01_122"
    INDEX 01 02:41:47
  TRACK 123 AUDIO
    TITLE "LR_black_phrase_E_B01_123"
    INDEX 01 02:42:66
  TRACK 124 AUDIO
    TITLE "LR_black_phrase_E_B01_124"
    INDEX 01 02:43:18
  TRACK 125 AUDIO
    TITLE "LR_black_phrase_E_B01_125"
    INDEX 01 02:45:43
  TRACK 126 AUDIO
    TITLE "LR_black_phrase_E_B01_126"
    INDEX 01 02:46:21
  TRACK 127 AUDIO
    TITLE "LR_black_phrase_E_B01_127"
    INDEX 01 02:48:45
  TRACK 128 AUDIO
    TITLE "LR_black_phrase_E_B01_128"
    INDEX 01 02:49:50
  TRACK 129 AUDIO
    TITLE "LR_black_phrase_E_B01_129"
    INDEX 01 02:50:69
  TRACK 130 AUDIO
    TITLE "LR_black_phrase_E_B01_130"
    INDEX 01 02:51:28
  TRACK 131 AUDIO
    TITLE "LR_black_phrase_E_B01_131"
    INDEX 01 02:53:23
  TRACK 132 AUDIO
    TITLE "LR_black_phrase_E_B01_132"
    INDEX 01 02:54:07
  TRACK 133 AUDIO
    TITLE "LR_black_phrase_E_B01_133"
    INDEX 01 02:55:75
  TRACK 134 AUDIO
    TITLE "LR_black_phrase_E_B01_134"
    INDEX 01 02:57:05
  TRACK 135 AUDIO
    TITLE "LR_black_phrase_E_B01_135"
    INDEX 01 02:58:28
  TRACK 136 AUDIO
    TITLE "LR_black_phrase_E_B01_136"
    INDEX 01 02:58:57
  TRACK 137 AUDIO
    TITLE "LR_black_phrase_E_B01_137"
    INDEX 01 03:00:64
  TRACK 138 AUDIO
    TITLE "LR_black_phrase_E_B01_138"
    INDEX 01 03:01:44
  TRACK 139 AUDIO
    TITLE "LR_black_phrase_E_B01_139"
    INDEX 01 03:03:43
  TRACK 140 AUDIO
    TITLE "LR_black_phrase_E_B01_140"
    INDEX 01 03:04:52
  TRACK 141 AUDIO
    TITLE "LR_black_phrase_E_B01_141"
    INDEX 01 03:06:06
  TRACK 142 AUDIO
    TITLE "LR_black_phrase_E_B01_142"
    INDEX 01 03:06:37
  TRACK 143 AUDIO
    TITLE "LR_black_phrase_E_B01_143"
    INDEX 01 03:08:69
  TRACK 144 AUDIO
    TITLE "LR_black_phrase_E_B01_144"
    INDEX 01 03:09:49
  TRACK 145 AUDIO
    TITLE "LR_black_phrase_E_B01_145"
    INDEX 01 03:12:08
  TRACK 146 AUDIO
    TITLE "LR_black_phrase_E_B01_146"
    INDEX 01 03:13:12
  TRACK 147 AUDIO
    TITLE "LR_black_phrase_E_B01_147"
    INDEX 01 03:14:33
  TRACK 148 AUDIO
    TITLE "LR_black_phrase_E_B01_148"
    INDEX 01 03:14:62
  TRACK 149 AUDIO
    TITLE "LR_black_phrase_E_B01_149"
    INDEX 01 03:16:69
  TRACK 150 AUDIO
    TITLE "LR_black_phrase_E_B01_150"
    INDEX 01 03:17:47
  TRACK 151 AUDIO
    TITLE "LR_black_phrase_E_B01_151"
    INDEX 01 03:19:53
  TRACK 152 AUDIO
    TITLE "LR_black_phrase_E_B01_152"
    INDEX 01 03:20:59
  TRACK 153 AUDIO
    TITLE "LR_black_phrase_E_B01_153"
    INDEX 01 03:22:03
  TRACK 154 AUDIO
    TITLE "LR_black_phrase_E_B01_154"
    INDEX 01 03:22:34
  TRACK 155 AUDIO
    TITLE "LR_black_phrase_E_B01_155"
    INDEX 01 03:24:74
  TRACK 156 AUDIO
    TITLE "LR_black_phrase_E_B01_156"
    INDEX 01 03:25:52
  TRACK 157 AUDIO
    TITLE "LR_black_phrase_E_B01_157"
    INDEX 01 03:28:15
  TRACK 158 AUDIO
    TITLE "LR_black_phrase_E_B01_158"
    INDEX 01 03:29:21
  TRACK 159 AUDIO
    TITLE "LR_black_phrase_E_B01_159"
    INDEX 01 03:30:36
  TRACK 160 AUDIO
    TITLE "LR_black_phrase_E_B01_160"
    INDEX 01 03:30:65
  TRACK 161 AUDIO
    TITLE "LR_black_phrase_E_B01_161"
    INDEX 01 03:32:54
  TRACK 162 AUDIO
    TITLE "LR_black_phrase_E_B01_162"
    INDEX 01 03:33:34
  TRACK 163 AUDIO
    TITLE "LR_black_phrase_E_B01_163"
    INDEX 01 03:35:23
  TRACK 164 AUDIO
    TITLE "LR_black_phrase_E_B01_164"
    INDEX 01 03:36:28
  TRACK 165 AUDIO
    TITLE "LR_black_phrase_E_B01_165"
    INDEX 01 03:37:61
  TRACK 166 AUDIO
    TITLE "LR_black_phrase_E_B01_166"
    INDEX 01 03:38:16
  TRACK 167 AUDIO
    TITLE "LR_black_phrase_E_B01_167"
    INDEX 01 03:41:08
  TRACK 168 AUDIO
    TITLE "LR_black_phrase_E_B01_168"
    INDEX 01 03:41:63
  TRACK 169 AUDIO
    TITLE "LR_black_phrase_E_B01_169"
    INDEX 01 03:44:55
  TRACK 170 AUDIO
    TITLE "LR_black_phrase_E_B01_170"
    INDEX 01 03:45:59
  TRACK 171 AUDIO
    TITLE "LR_black_phrase_E_B01_171"
    INDEX 01 03:47:11
  TRACK 172 AUDIO
    TITLE "LR_black_phrase_E_B01_172"
    INDEX 01 03:47:40
  TRACK 173 AUDIO
    TITLE "LR_black_phrase_E_B01_173"
    INDEX 01 03:50:05
  TRACK 174 AUDIO
    TITLE "LR_black_phrase_E_B01_174"
    INDEX 01 03:50:60
  TRACK 175 AUDIO
    TITLE "LR_black_phrase_E_B01_175"
    INDEX 01 03:53:25
  TRACK 176 AUDIO
    TITLE "LR_black_phrase_E_B01_176"
    INDEX 01 03:54:30
  TRACK 177 AUDIO
    TITLE "LR_black_phrase_E_B01_177"
    INDEX 01 03:55:45
  TRACK 178 AUDIO
    TITLE "LR_black_phrase_E_B01_178"
    INDEX 01 03:55:75
  TRACK 179 AUDIO
    TITLE "LR_black_phrase_E_B01_179"
    INDEX 01 03:58:28
  TRACK 180 AUDIO
    TITLE "LR_black_phrase_E_B01_180"
    INDEX 01 03:59:10
  TRACK 181 AUDIO
    TITLE "LR_black_phrase_E_B01_181"
    INDEX 01 04:01:38
